<?xml version="1.0" encoding="UTF-8" standalone="no"?>
<!-- Created with Inkscape (http://www.inkscape.org/) -->

<svg
   xmlns:dc="http://purl.org/dc/elements/1.1/"
   xmlns:cc="http://creativecommons.org/ns#"
   xmlns:rdf="http://www.w3.org/1999/02/22-rdf-syntax-ns#"
   xmlns:svg="http://www.w3.org/2000/svg"
   xmlns="http://www.w3.org/2000/svg"
   xmlns:sodipodi="http://sodipodi.sourceforge.net/DTD/sodipodi-0.dtd"
   xmlns:inkscape="http://www.inkscape.org/namespaces/inkscape"
   width="377"
   height="377"
   viewBox="0 0 376.99999 377.00004"
   id="svg2"
   version="1.1"
   inkscape:version="0.91 r13725"
   sodipodi:docname="ooni-logo.svg"
   enable-background="new">
  <defs
     id="defs4" />
  <sodipodi:namedview
     id="base"
     pagecolor="#ffffff"
     bordercolor="#666666"
     borderopacity="1.0"
     inkscape:pageopacity="0.0"
     inkscape:pageshadow="2"
     inkscape:zoom="1"
     inkscape:cx="199.37985"
     inkscape:cy="162.92444"
     inkscape:document-units="px"
     inkscape:current-layer="layer3"
     showgrid="false"
     inkscape:snap-bbox="true"
     inkscape:object-paths="true"
     inkscape:object-nodes="true"
     inkscape:snap-global="false"
     inkscape:snap-smooth-nodes="true"
     fit-margin-top="10"
     fit-margin-left="10"
     fit-margin-right="10"
     fit-margin-bottom="10"
     units="px" />
  <metadata
     id="metadata7">
    <rdf:RDF>
      <cc:Work
         rdf:about="">
        <dc:format>image/svg+xml</dc:format>
        <dc:type
           rdf:resource="http://purl.org/dc/dcmitype/StillImage" />
        <dc:title></dc:title>
      </cc:Work>
    </rdf:RDF>
  </metadata>
  <g
     inkscape:groupmode="layer"
     id="layer3"
     inkscape:label="Layer 1"
     style="display:inline">
    <circle
       style="color:#000000;display:inline;overflow:visible;visibility:visible;fill:#8dd8f8;fill-opacity:1;fill-rule:evenodd;stroke:none;stroke-width:0.9999997;stroke-linecap:butt;stroke-linejoin:miter;stroke-miterlimit:4;stroke-dasharray:none;stroke-dashoffset:0;stroke-opacity:1;marker:none;marker-start:none;marker-mid:none;marker-end:none;enable-background:accumulate"
       id="path8462"
       cx="188.54599"
       cy="188.84601"
       r="152.40001" />
    <g
       transform="translate(-3.9832139e-7,1.5845929e-6)"
       style="display:inline"
       id="g9050">
      <path
         sodipodi:nodetypes="csssssssssssssssssssssssscssccsssssssssssscsssscsscsssssssscssssssssssssssscsssssssssssscsssscssssssssccscsscsssssssssssssccccc"
         inkscape:connector-curvature="0"
         id="circle4375"
         d="m 147.07871,154.16306 c 10.70723,10.45326 13.12685,20.1669 8.73692,28.92514 -4.75003,9.47668 -15.70017,14.59849 -33.69687,14.75 -15.51208,0.1306 -19.70668,-7.57279 -22.85313,-12 -6.03284,-8.48851 -2.908368,-18.78729 2.75,-25.4 6.87329,-8.03254 11.9478,-8.7256 17.52969,-5.72031 2.99368,1.6118 7.42031,5.37031 7.52031,12.22031 0.0596,4.08001 -2.7,10.4 -2.7,11.2 0,0.8 0.65,1.3 1.35,1 0.7,-0.3 6.31966,-3.27348 9.5,-7.35 2.84568,-3.64755 5.9,-16.9 5.3,-18.6 -0.6,-1.7 -4.92344,-5.23593 -5.22344,-7.13593 -0.17834,-1.12944 -0.3105,-2.57224 -0.84218,-3.75626 -0.36276,-0.80779 -1.35716,-1.55225 -1.88438,-1.95781 -1.3,-1 -4.7,0.25 -6.1,-1.5 -1.2,-1.5 -1.7,-4.65 -3.3,-5.05 -0.72663,-0.18165 -2.1241,-0.47526 -3.40313,-0.21406 -1.83716,0.37517 -3.21776,1.48198 -4.64687,1.31406 -1.99624,-0.23454 -3.7,-3.4 -6.4,-3.2 -2.68522,0.19891 -6.1,4.8 -9.8,8.8 -3.7,4 -10.268552,9.05187 -14.9,17.2 -3.357216,5.90637 -6.1,12.9 -4.7,22.8 1.4,9.9 3.838608,16.57272 11.8,23.85 8.189136,7.48547 14.8,9.65 19.7,11.35 4.9,1.7 8.29878,3.28563 13.6,3.45 1.82661,0.0566 5.71591,0.17737 7.00625,0.039 3.26603,-0.35029 2.60157,-1.78844 5.64375,-2.28906 11.85,-1.95 20.28595,-8.13527 25.41406,-13.35782 1.30539,-1.32942 4.72816,-4.9834 5.36673,-5.61445 0.16053,0.90967 0.20918,3.83118 0.10538,4.59035 -0.71135,5.2015 -3.95738,8.11293 -9.15803,10.88661 -7.42462,3.95979 -18.20605,9.77998 -25.59844,14.95469 -6.83888,4.78723 -12.86931,9.4398 -14.99063,17.07656 -2.12132,7.63675 -1.69595,12.02112 0.6375,17.28906 2.12846,4.80517 6.01024,9.93514 12.51562,13.68281 5.38068,3.09973 10.08964,5.82519 15.27969,8.49063 3.57376,1.83534 9.82195,4.94305 9.25626,11.44843 -0.57367,6.59703 -4.84355,10.08595 -7.74219,11.35 -4.97854,2.17107 -11.8001,2.73767 -12.09219,2.97031 -0.51421,0.40957 5.93892,5.86473 10.88907,5.83282 5.40843,-0.0349 7.3257,-0.39836 12.33905,-2.15625 4.35941,-1.52859 6.25852,-5.33826 6.96563,-5.47969 0.7071,-0.14142 1.74312,-0.0577 2.6875,-0.74375 0.92114,-0.66916 3.8527,-2.93462 4.20625,-4.27813 0.35356,-1.3435 0.42457,-3.60572 0.77813,-4.8078 0.35355,-1.20208 1.76835,-5.26735 1.83906,-7.45938 0.0707,-2.19202 0.63762,-7.21309 -1.32657,-10.09375 -1.62834,-2.38812 -0.77805,-3.64222 -2.13905,-4.93281 -0.22648,-0.21478 -1.36911,-1.72771 -2.41407,-2.11875 -1.35435,-0.50682 -2.06096,-0.065 -3.02969,-0.60313 -1.54956,-0.86083 -3.39956,-6.664 -5.63437,-6.825 -0.81521,-0.0587 -1.76432,-0.01 -2.58751,0.18906 -1.83803,0.44375 -9.88465,0.65173 -11.32968,0.0953 -2.23629,-0.8611 -9.52924,-5.51436 -8.90937,-12.23282 0.53253,-5.77178 4.64388,-9.69866 10.21718,-11.73906 4.97647,-1.82189 6.71683,-1.66116 10.11094,-3.2875 3.34645,-1.6035 5.69348,-3.64087 8.23906,-4.98438 2.54559,-1.3435 5.99152,-2.95172 8.60782,-5.14374 1.49183,-1.24991 2.98674,-2.66824 4.4,-4.44375 1.20929,-1.51928 3.52142,-5.63934 5.98905,-7.68282 3.37491,5.16108 6.67411,9.70633 9.10938,12.53125 6.18718,7.17713 14.63708,11.54231 18.59688,14.01719 3.95979,2.47487 13.04373,9.28562 16.93594,14.72813 4.17192,5.83363 2.26214,13.8235 -0.0359,16.86406 -1.98978,2.63264 -6.5056,6.04611 -12.72813,5.90468 -6.65449,-0.15123 -13.03109,-2.88152 -16.93438,-7.92031 -3.88908,-5.02045 -5.40392,-14.44695 -2.08593,-16.93437 3.56736,-2.67439 7.06392,-1.4011 9.26249,-1.13281 1.72288,0.21024 3.35935,-0.7061 3.64219,-2.12031 0.28284,-1.41422 -0.17675,-3.11196 -2.08593,-4.59688 -1.01323,-0.78807 -2.877,-2.09403 -5.44844,-2.0625 -1.40978,0.0173 -4.06653,0.69952 -7.66875,0.575 -3.82572,-0.13224 -7.59281,0.27547 -11.05156,3.475 -2.84635,2.63302 -4.47881,4.7116 -5.54376,8.00938 -0.40527,1.255 0.0858,3.95206 -0.0828,5.5578 -0.17028,1.62124 -0.8392,2.89064 -0.85157,4.13907 -0.0184,1.85377 0.28369,4.12441 0.70625,6.34062 0.47049,2.46756 1.36764,5.31709 2.47812,7.84063 0.45472,1.03331 0.82023,2.44921 1.40313,3.07656 0.70905,0.76312 2.06427,1.55228 3.34844,2.80469 2.43134,2.37121 5.25085,5.43335 7.47187,6.3125 2.75982,1.09242 8.34437,-0.81374 9.9,-0.31875 1.55564,0.49497 3.55209,2.93164 5.95625,2.86093 2.40417,-0.0707 17.1393,-0.76275 22.22188,-2.79062 6.34975,-2.53346 17.30399,-9.51444 19.45781,-19.22969 2.65564,-11.97878 -2.37662,-20.17514 -7.42812,-26.17031 -6.23622,-7.40121 -17.9358,-16.96367 -26.7625,-23.29687 -5.05647,-3.62804 -6.97375,-6.38706 -8.92969,-9.68125 -1.48531,-2.50155 -3.05957,-6.72911 -2.27007,-10.60754 3.63762,1.90481 8.83362,7.83638 10.356,9.73097 1.95787,2.43655 4.45427,3.91868 6.38438,4.86719 1.70918,0.83995 3.84241,0.35779 5.46875,0.64063 1.62635,0.28284 0.4618,1.61473 3.36094,2.60468 2.89913,0.98995 15.7168,3.36 18.80156,3.25156 1.2597,-0.0443 2.9486,-1.02188 4.94219,-1.64687 1.90918,-0.59853 5.17368,-0.86609 14.23906,-4.40781 12.43381,-4.85772 17.65816,-12.77832 21.85938,-22.25 4.20122,-9.47168 1.35686,-21.56474 -1.09375,-27.06094 -2.45061,-5.4962 -7.26119,-12.7902 -12.21094,-20.35625 -4.94975,-7.56605 -11.15224,-15.29053 -8.38594,-30.79688 2.76629,-15.50635 14.60229,-20.26356 16.28437,-23.112494 1.34697,-2.281336 -2.65845,-4.5898 -3.65624,-5.064064 -1.21173,-0.575952 -2.52896,-1.022648 -5.71094,-1.164064 -0.19887,-0.0088 -0.39119,-0.0098 -0.57813,-0.0032 -2.80407,0.101808 -4.29764,1.860856 -5.45312,2.248432 -1.25208,0.419984 -6.74359,0.08713 -7.50313,0.245312 -0.83207,0.173312 -2.29137,1.930408 -2.60312,2.379688 -0.54604,0.786904 -0.1253,0.984592 -0.90312,2.610944 -0.77782,1.626346 -6.32608,6.254126 -7.84532,9.139056 -0.81371,1.54525 0.0993,4.74118 -0.89062,6.8625 -0.98995,2.12132 -3.96008,2.01741 -4.59219,4.34376 -0.46501,1.71136 0.42353,7.20791 -0.325,9.89062 -0.77543,2.77916 -2.3856,1.52634 -2.48594,4.36094 -0.14141,3.99514 6.92136,10.36308 8.12344,12.20156 1.20208,1.83847 1.68622,2.92146 3.17187,6.28125 1.65785,3.74921 3.88968,6.08572 5.57032,7.99063 1.68063,1.90489 6.3044,4.82336 7.49844,6.86562 0.6641,1.13588 -0.0586,3.30416 0.39062,4.72656 0.42426,1.3435 1.63769,2.52042 3.54687,5.27813 1.90919,2.75772 1.26854,9.93425 -0.45781,14.27187 -1.72634,4.33762 -6.43167,10.08622 -14.47968,12.34531 -8.04802,2.25909 -28.25604,0.40994 -36.34844,-20.82187 -3.72252,-9.76667 -2.01285,-21.19215 6.6824,-30.18085 8.69525,-8.98869 15.18078,-22.73641 15.20197,-37.05665 -2.3e-4,-30.382476 -25.78821,-55.012276 -56.61253,-55.012228 -30.82432,5.6e-5 -55.81229,24.629856 -55.81254,55.012358 0.0125,14.58017 5.89649,28.55912 16.60373,39.01239 z"
         style="color:#000000;clip-rule:nonzero;display:inline;overflow:visible;visibility:visible;opacity:1;isolation:auto;mix-blend-mode:normal;color-interpolation:sRGB;color-interpolation-filters:linearRGB;solid-color:#000000;solid-opacity:1;fill:#0588cb;fill-opacity:1;fill-rule:evenodd;stroke:none;stroke-width:0.99999994;stroke-linecap:butt;stroke-linejoin:miter;stroke-miterlimit:4;stroke-dasharray:none;stroke-dashoffset:0;stroke-opacity:1;marker:none;marker-start:none;marker-mid:none;marker-end:none;color-rendering:auto;image-rendering:auto;shape-rendering:auto;text-rendering:auto;enable-background:accumulate" />
      <circle
         r="27.338503"
         cy="119.75051"
         cx="177.89349"
         id="path3571"
         style="color:#000000;display:inline;overflow:visible;visibility:visible;fill:#ffffff;fill-opacity:1;fill-rule:evenodd;stroke:none;stroke-width:0.99999994;stroke-linecap:butt;stroke-linejoin:miter;stroke-miterlimit:4;stroke-dasharray:none;stroke-dashoffset:0;stroke-opacity:1;marker:none;marker-start:none;marker-mid:none;marker-end:none;enable-background:accumulate" />
      <circle
         style="color:#000000;display:inline;overflow:visible;visibility:visible;fill:#0062b0;fill-opacity:1;fill-rule:evenodd;stroke:none;stroke-width:0.99999994;stroke-linecap:butt;stroke-linejoin:miter;stroke-miterlimit:4;stroke-dasharray:none;stroke-dashoffset:0;stroke-opacity:1;marker:none;marker-start:none;marker-mid:none;marker-end:none;enable-background:accumulate"
         id="circle4373"
         cx="174.34947"
         cy="123.66032"
         r="6.2578945" />
    </g>
  </g>
</svg>
